<?xml version="1.0" encoding="utf-8"?>
 Generator: Adobe Illustrator 15.1.0, SVG Export Plug-In . SVG Version: 6.00 Build 0)  
<!DOCTYPE svg PUBLIC "-//W3C//DTD SVG 1.1//EN" "http://www.w3.org/Graphics/SVG/1.1/DTD/svg11.dtd">
<svg version="1.1" id="Layer_1" xmlns="http://www.w3.org/2000/svg" xmlns:xlink="http://www.w3.org/1999/xlink" x="0px"
	 y="0px" width="305px" height="225px" viewBox="0 0 305 225" enable-background="new 0 0 305 225" xml:space="preserve">
<g>
	<path fill="#171C61" d="M146.096,74.142V56.968l-11.06-19.95h5.483l8.26,14.724l8.237-14.724h4.946l-11.037,19.95v17.173
		L146.096,74.142L146.096,74.142z"/>
	<path fill="#171C61" d="M182.822,74.888c-3.826,0-6.891-1.337-9.193-4.013c-2.303-2.675-3.453-6.043-3.453-10.104
		c0-4.075,1.15-7.443,3.453-10.103s5.367-3.99,9.193-3.99c3.811,0,6.863,1.33,9.158,3.99s3.44,6.028,3.44,10.103
		c0,4.06-1.146,7.428-3.44,10.104S186.633,74.888,182.822,74.888z M182.822,71.178c2.365,0,4.25-0.925,5.658-2.777
		c1.408-1.851,2.11-4.394,2.11-7.63c0-3.22-0.702-5.755-2.11-7.606s-3.293-2.777-5.658-2.777c-2.396,0-4.297,0.926-5.705,2.777
		s-2.111,4.387-2.111,7.606c0,3.236,0.703,5.779,2.111,7.63C178.525,70.253,180.428,71.178,182.822,71.178z"/>
	<path fill="#171C61" d="M228.088,47.425v26.717h-4.434v-5.856c-1.447,2.193-3.045,3.842-4.795,4.946s-3.504,1.657-5.262,1.657
		c-1.57,0-3.007-0.42-4.306-1.26s-2.201-1.94-2.707-3.302c-0.506-1.361-0.758-4.025-0.758-7.992v-14.91h4.435v15.47
		c0,2.566,0.122,4.262,0.372,5.086c0.248,0.825,0.703,1.498,1.365,2.019c0.66,0.521,1.373,0.782,2.135,0.782
		c1.57,0,3.255-0.735,5.052-2.205c1.797-1.47,3.287-3.333,4.469-5.588V47.425H228.088z"/>
	<path fill="#171C61" d="M242.672,74.142V47.425h4.455v5.833c1.385-2.208,2.977-3.858,4.773-4.947
		c1.795-1.088,3.791-1.633,5.983-1.633c1.617,0,3.234,0.249,4.854,0.747v9.637h-4.293v-6.113c-0.748-0.125-1.34-0.187-1.773-0.187
		c-1.65,0-3.275,0.653-4.877,1.96c-1.604,1.307-3.158,3.274-4.668,5.903v15.517H242.672L242.672,74.142z"/>
	<path fill="#171C61" d="M137.556,125.348v-4.549c3.827,1.82,7.303,2.73,10.43,2.73c1.307,0,2.559-0.25,3.756-0.748
		c1.197-0.496,2.104-1.217,2.719-2.158c0.613-0.941,0.922-1.963,0.922-3.068c0-1.291-0.424-2.5-1.271-3.627
		c-0.848-1.129-2.431-2.369-4.748-3.723l-2.451-1.4l-2.473-1.422c-4.34-2.568-6.51-5.756-6.51-9.568c0-2.8,0.972-5.153,2.917-7.058
		c1.944-1.906,4.97-2.858,9.076-2.858c2.645,0,5.203,0.389,7.679,1.167v4.13c-2.724-1.058-5.375-1.586-7.958-1.586
		c-2.053,0-3.718,0.544-4.993,1.633c-1.276,1.089-1.914,2.396-1.914,3.92c0,1.525,0.49,2.788,1.47,3.792s2.224,1.926,3.733,2.766
		l1.867,1.119l2.309,1.424l1.983,1.143c4.06,2.49,6.09,5.616,6.09,9.381c0,2.879-1.047,5.344-3.139,7.396
		c-2.092,2.053-5.441,3.08-10.045,3.08c-1.462,0-2.862-0.125-4.2-0.373C141.468,126.639,139.718,126.127,137.556,125.348z"/>
	<path fill="#171C61" d="M182.822,126.889c-3.826,0-6.891-1.338-9.193-4.014c-2.302-2.676-3.453-6.043-3.453-10.104
		c0-4.074,1.15-7.443,3.453-10.104s5.367-3.99,9.193-3.99c3.811,0,6.863,1.33,9.158,3.99s3.44,6.029,3.44,10.104
		c0,4.061-1.146,7.428-3.44,10.104S186.633,126.889,182.822,126.889z M182.822,123.178c2.365,0,4.25-0.924,5.658-2.775
		c1.408-1.851,2.11-4.395,2.11-7.63c0-3.219-0.702-5.756-2.11-7.605c-1.408-1.852-3.293-2.777-5.658-2.777
		c-2.396,0-4.297,0.926-5.705,2.777c-1.408,1.85-2.111,4.387-2.111,7.605c0,3.236,0.703,5.779,2.111,7.63
		C178.525,122.255,180.428,123.178,182.822,123.178z"/>
	<path fill="#171C61" d="M228.088,99.426v26.717h-4.434v-5.856c-1.447,2.192-3.045,3.842-4.795,4.946s-3.504,1.656-5.262,1.656
		c-1.57,0-3.007-0.42-4.306-1.26s-2.201-1.941-2.707-3.303c-0.506-1.359-0.758-4.023-0.758-7.99v-14.91h4.435v15.469
		c0,2.566,0.122,4.265,0.372,5.088c0.248,0.824,0.703,1.496,1.365,2.019c0.66,0.521,1.373,0.781,2.135,0.781
		c1.57,0,3.255-0.734,5.052-2.205c1.797-1.47,3.287-3.332,4.469-5.588V99.426H228.088z"/>
	<path fill="#171C61" d="M247.594,126.143V91.258h-8.002v-3.733h12.436v34.907h8.354v3.711H247.594z"/>
</g>
<g>
	<path fill="#006934" d="M139.455,151.02v7.445h-2.67v-20.424h5.084c2.088,0,3.611,0.232,4.57,0.699s1.692,1.152,2.202,2.061
		c0.508,0.906,0.764,1.916,0.764,3.029c0,1.309-0.344,2.529-1.027,3.658c-0.685,1.131-1.639,2-2.863,2.613
		c-1.224,0.61-2.884,0.918-4.981,0.918H139.455L139.455,151.02z M139.455,148.979h1.143c1.643,0,2.863-0.215,3.659-0.643
		c0.796-0.428,1.41-1.039,1.842-1.836c0.432-0.795,0.648-1.66,0.648-2.594c0-1.172-0.385-2.1-1.155-2.785s-2.285-1.027-4.544-1.027
		h-1.592L139.455,148.979L139.455,148.979z"/>
	<path fill="#006934" d="M156.631,158.465v-14.699h2.453v3.209c0.762-1.215,1.637-2.121,2.625-2.721s2.086-0.898,3.293-0.898
		c0.891,0,1.779,0.138,2.67,0.41v5.303h-2.361v-3.362c-0.412-0.07-0.735-0.104-0.977-0.104c-0.906,0-1.801,0.359-2.684,1.078
		c-0.881,0.719-1.736,1.801-2.566,3.248v8.537H156.631z"/>
	<path fill="#006934" d="M180.316,158.875c-2.105,0-3.793-0.736-5.06-2.207c-1.269-1.473-1.899-3.326-1.899-5.559
		c0-2.242,0.633-4.096,1.899-5.56c1.267-1.465,2.953-2.194,5.06-2.194c2.096,0,3.774,0.729,5.039,2.194
		c1.262,1.464,1.893,3.316,1.893,5.56c0,2.231-0.631,4.086-1.893,5.559C184.092,158.139,182.412,158.875,180.316,158.875z
		 M180.316,156.834c1.301,0,2.338-0.51,3.113-1.527c0.772-1.018,1.159-2.418,1.159-4.197c0-1.771-0.387-3.168-1.159-4.186
		c-0.775-1.018-1.812-1.527-3.113-1.527c-1.318,0-2.365,0.511-3.14,1.527c-0.774,1.018-1.161,2.414-1.161,4.186
		c0,1.779,0.387,3.181,1.161,4.197C177.951,156.324,178.998,156.834,180.316,156.834z"/>
	<path fill="#006934" d="M193.346,164.229v-2.285c1.369,0.402,2.525,0.604,3.467,0.604c0.812,0,1.506-0.143,2.08-0.43
		c0.572-0.287,1.021-0.771,1.34-1.445c0.322-0.676,0.482-1.853,0.482-3.528v-11.336h-6.24v-2.041h8.68v12.928
		c0,2.49-0.293,4.219-0.881,5.186c-0.586,0.967-1.295,1.662-2.131,2.086c-0.834,0.424-1.975,0.637-3.42,0.637
		C195.678,164.602,194.553,164.477,193.346,164.229z M200.305,138.451c0-0.549,0.187-0.959,0.557-1.232
		c0.373-0.272,0.73-0.41,1.072-0.41s0.699,0.137,1.072,0.41s0.559,0.684,0.559,1.232c0,0.547-0.186,0.959-0.559,1.232
		c-0.373,0.272-0.73,0.409-1.072,0.409s-0.699-0.137-1.072-0.409C200.49,139.41,200.305,138.998,200.305,138.451z"/>
	<path fill="#006934" d="M224.232,157.488c-1.961,0.934-3.812,1.4-5.56,1.4c-1.327,0-2.512-0.33-3.557-0.988
		c-1.046-0.66-1.882-1.603-2.511-2.824c-0.629-1.225-0.942-2.533-0.942-3.93c0-1.345,0.299-2.633,0.897-3.869
		c0.6-1.236,1.435-2.199,2.504-2.889c1.068-0.689,2.265-1.033,3.582-1.033c1.744,0,3.146,0.621,4.203,1.867
		c1.058,1.245,1.586,3.168,1.586,5.77v0.527h-10.143c0,1.018,0.215,1.946,0.643,2.785c0.428,0.84,0.988,1.471,1.683,1.895
		s1.479,0.635,2.36,0.635c1.584,0,3.334-0.525,5.252-1.578v2.232H224.232z M214.449,149.684h7.33v-0.358
		c0-1.197-0.295-2.152-0.885-2.863c-0.592-0.709-1.375-1.063-2.351-1.063c-0.992,0-1.854,0.36-2.58,1.084
		C215.236,147.203,214.732,148.271,214.449,149.684z"/>
	<path fill="#006934" d="M243.244,158.041c-1.643,0.557-3.205,0.834-4.686,0.834c-1.481,0-2.793-0.34-3.937-1.02
		c-1.144-0.683-2.033-1.604-2.677-2.769c-0.643-1.164-0.963-2.485-0.963-3.967c0-2.231,0.728-4.086,2.183-5.56
		c1.455-1.471,3.211-2.207,5.265-2.207c1.516,0,3.118,0.287,4.813,0.859v2.35c-1.711-0.778-3.244-1.168-4.597-1.168
		c-0.897,0-1.742,0.222-2.528,0.66c-0.787,0.441-1.396,1.133-1.83,2.074c-0.433,0.941-0.646,1.908-0.646,2.9
		c0,1.318,0.414,2.578,1.244,3.781c0.829,1.203,2.131,1.803,3.901,1.803c0.539,0,1.067-0.035,1.586-0.107
		c0.519-0.074,1.476-0.346,2.869-0.816L243.244,158.041L243.244,158.041z"/>
	<path fill="#006934" d="M262.037,157.875c-1.154,0.479-1.992,0.766-2.51,0.859c-0.519,0.093-1.017,0.141-1.496,0.141
		c-1.025,0-1.965-0.197-2.816-0.59c-0.852-0.395-1.494-0.979-1.926-1.752c-0.434-0.775-0.648-1.971-0.648-3.588v-5.918h-3.686
		v-2.043h3.686v-5.918h2.439v5.918h6.547v2.043h-6.547v5.879c0,1.188,0.141,2.027,0.424,2.516c0.281,0.488,0.658,0.846,1.129,1.072
		s1.021,0.34,1.656,0.34c1.189,0,2.439-0.371,3.748-1.117V157.875z"/>
</g>
<g>
	<g>
		<path fill="#171C61" d="M71.269,159.062c-1.249,0-30.604-0.082-30.604-7.236c0-0.828,0.672-1.5,1.5-1.5
			c0.805,0,1.462,0.635,1.499,1.43c0.835,1.562,10.662,4.307,27.605,4.307s26.771-2.744,27.605-4.307
			c0.037-0.795,0.694-1.43,1.499-1.43c0.828,0,1.5,0.672,1.5,1.5C101.874,158.98,72.519,159.062,71.269,159.062z"/>
		<path fill="#171C61" d="M71.27,153.768c-4.448,0-18.961-0.355-18.961-4.939c0-0.828,0.672-1.5,1.5-1.5
			c0.719,0,1.319,0.506,1.466,1.18c0.971,0.811,6.508,2.26,15.995,2.26c9.486,0,15.022-1.449,15.993-2.26
			c0.146-0.674,0.747-1.18,1.466-1.18c0.828,0,1.5,0.672,1.5,1.5C90.229,153.412,75.717,153.768,71.27,153.768z"/>
		<g>
			<ellipse fill="#171C61" cx="71.269" cy="147.529" rx="6.587" ry="1.299"/>
			<path fill="#171C61" d="M71.269,149.328c-1.184,0-7.087-0.088-7.087-1.799c0-1.713,5.903-1.801,7.087-1.801
				s7.087,0.088,7.087,1.801C78.356,149.24,72.453,149.328,71.269,149.328z M65.295,147.529c0.568,0.32,2.604,0.799,5.974,0.799
				s5.405-0.479,5.974-0.799c-0.568-0.322-2.603-0.801-5.974-0.801C67.899,146.729,65.864,147.207,65.295,147.529z"/>
		</g>
	</g>
	<circle fill="#8FC31F" cx="72.489" cy="87.829" r="7.604"/>
	<circle fill="#8FC31F" cx="72.489" cy="118.931" r="6.072"/>
	<path fill="#006934" d="M70.763,134.756c-0.877,0-1.681-0.581-1.926-1.467c-0.295-1.062,0.329-2.165,1.393-2.461
		c4.453-1.237,16.011-5.975,16.011-12.944c0-3.639-10.061-8.377-18.145-12.183c-11.217-5.281-21.811-10.27-21.811-17.167
		c0-3.498,3.324-9.714,32.066-23.253c15.351-7.23,30.902-13.188,31.058-13.247c1.034-0.393,2.188,0.123,2.582,1.154
		c0.394,1.031-0.123,2.188-1.154,2.582c-0.154,0.059-15.583,5.97-30.799,13.138C51.72,82.25,50.286,87.598,50.286,88.534
		c0,4.36,10.82,9.456,19.515,13.549c10.968,5.164,20.44,9.623,20.44,15.801c0,11.435-18.171,16.586-18.944,16.8
		C71.119,134.732,70.939,134.756,70.763,134.756z"/>
	<path fill="#006934" d="M62.092,69.239c-0.305,0-0.613-0.07-0.903-0.217L34.933,55.686c-0.985-0.5-1.378-1.704-0.878-2.689
		c0.5-0.984,1.705-1.377,2.688-0.877L63,65.455c0.985,0.5,1.378,1.704,0.878,2.689C63.525,68.838,62.822,69.239,62.092,69.239z"/>
	<g>
		<polygon fill="#FAEE00" points="48.168,51.15 70.438,62.104 94.37,51.15 70.844,35.114 		"/>
		<path fill="#006934" d="M70.438,64.104c-0.303,0-0.604-0.068-0.883-0.206l-22.27-10.953c-0.633-0.311-1.055-0.933-1.111-1.636
			c-0.056-0.703,0.264-1.384,0.839-1.791L69.69,33.481c0.683-0.483,1.59-0.49,2.281-0.02l23.525,16.036
			c0.596,0.406,0.927,1.102,0.866,1.821c-0.062,0.719-0.505,1.349-1.161,1.649L71.27,63.922
			C71.006,64.043,70.722,64.104,70.438,64.104z M52.07,50.841l18.399,9.049l19.846-9.083l-19.45-13.258L52.07,50.841z"/>
	</g>
</g>
</svg>
