<?xml version="1.0" encoding="utf-8"?>
<!-- Generator: Adobe Illustrator 15.1.0, SVG Export Plug-In . SVG Version: 6.00 Build 0)  -->
<!DOCTYPE svg PUBLIC "-//W3C//DTD SVG 1.1//EN" "http://www.w3.org/Graphics/SVG/1.1/DTD/svg11.dtd">
<svg version="1.1" id="layer1" xmlns="http://www.w3.org/2000/svg" xmlns:xlink="http://www.w3.org/1999/xlink" x="0px" y="0px"
	 width="305px" height="225px" viewBox="0 0 305 225" enable-background="new 0 0 305 225" xml:space="preserve">
<g>
	<path fill="#171C61" d="M146.096,74.142V56.968l-11.06-19.95h5.483l8.26,14.724l8.237-14.724h4.946l-11.037,19.95v17.173
		L146.096,74.142L146.096,74.142z"/>
	<path fill="#171C61" d="M182.822,74.888c-3.826,0-6.891-1.337-9.193-4.013c-2.303-2.675-3.453-6.043-3.453-10.104
		c0-4.075,1.15-7.443,3.453-10.103s5.367-3.99,9.193-3.99c3.811,0,6.863,1.33,9.158,3.99s3.439,6.028,3.439,10.103
		c0,4.06-1.146,7.428-3.439,10.104C189.686,73.551,186.633,74.888,182.822,74.888z M182.822,71.178c2.365,0,4.25-0.925,5.658-2.777
		c1.408-1.851,2.109-4.394,2.109-7.63c0-3.22-0.701-5.755-2.109-7.606s-3.293-2.777-5.658-2.777c-2.396,0-4.297,0.926-5.705,2.777
		s-2.111,4.387-2.111,7.606c0,3.236,0.703,5.779,2.111,7.63C178.525,70.253,180.428,71.178,182.822,71.178z"/>
	<path fill="#171C61" d="M228.088,47.425v26.717h-4.434v-5.856c-1.447,2.193-3.045,3.842-4.795,4.946s-3.504,1.657-5.262,1.657
		c-1.57,0-3.008-0.42-4.307-1.26s-2.201-1.94-2.707-3.302c-0.506-1.361-0.758-4.025-0.758-7.992v-14.91h4.436v15.47
		c0,2.566,0.121,4.262,0.371,5.086c0.248,0.825,0.703,1.498,1.365,2.019c0.66,0.521,1.373,0.782,2.135,0.782
		c1.57,0,3.256-0.735,5.053-2.205c1.797-1.47,3.287-3.333,4.469-5.588V47.425H228.088z"/>
	<path fill="#171C61" d="M242.672,74.142V47.425h4.455v5.833c1.385-2.208,2.977-3.858,4.773-4.947
		c1.795-1.088,3.791-1.633,5.982-1.633c1.617,0,3.234,0.249,4.854,0.747v9.637h-4.293v-6.113c-0.748-0.125-1.34-0.187-1.772-0.187
		c-1.649,0-3.274,0.653-4.877,1.96c-1.604,1.307-3.158,3.274-4.668,5.903v15.517H242.672L242.672,74.142z"/>
	<path fill="#171C61" d="M137.556,125.348v-4.549c3.827,1.82,7.303,2.73,10.43,2.73c1.307,0,2.559-0.25,3.756-0.748
		c1.197-0.496,2.104-1.217,2.719-2.158c0.613-0.941,0.922-1.963,0.922-3.068c0-1.291-0.424-2.5-1.271-3.627
		c-0.848-1.129-2.43-2.369-4.748-3.723l-2.451-1.4l-2.473-1.422c-4.34-2.568-6.51-5.756-6.51-9.568c0-2.8,0.972-5.153,2.917-7.058
		c1.944-1.906,4.97-2.858,9.076-2.858c2.645,0,5.203,0.389,7.679,1.167v4.13c-2.724-1.058-5.375-1.586-7.958-1.586
		c-2.053,0-3.718,0.544-4.993,1.633c-1.276,1.089-1.914,2.396-1.914,3.92c0,1.525,0.49,2.788,1.47,3.792s2.224,1.926,3.733,2.766
		l1.867,1.119l2.309,1.424l1.983,1.143c4.06,2.49,6.09,5.616,6.09,9.381c0,2.879-1.047,5.344-3.14,7.396
		c-2.092,2.053-5.441,3.08-10.045,3.08c-1.462,0-2.862-0.125-4.2-0.373C141.468,126.639,139.718,126.127,137.556,125.348z"/>
	<path fill="#171C61" d="M182.822,126.889c-3.826,0-6.891-1.338-9.193-4.014c-2.302-2.676-3.453-6.043-3.453-10.104
		c0-4.074,1.15-7.443,3.453-10.104s5.367-3.99,9.193-3.99c3.811,0,6.863,1.33,9.158,3.99s3.439,6.029,3.439,10.104
		c0,4.061-1.146,7.428-3.439,10.104C189.686,125.551,186.633,126.889,182.822,126.889z M182.822,123.178
		c2.365,0,4.25-0.924,5.658-2.775c1.408-1.851,2.109-4.395,2.109-7.629c0-3.219-0.701-5.756-2.109-7.605
		c-1.408-1.852-3.293-2.777-5.658-2.777c-2.396,0-4.297,0.926-5.705,2.777c-1.408,1.85-2.111,4.387-2.111,7.605
		c0,3.236,0.703,5.779,2.111,7.629C178.525,122.255,180.428,123.178,182.822,123.178z"/>
	<path fill="#171C61" d="M228.088,99.426v26.717h-4.434v-5.855c-1.447,2.191-3.045,3.842-4.795,4.945
		c-1.75,1.104-3.504,1.656-5.262,1.656c-1.57,0-3.008-0.42-4.307-1.26s-2.201-1.941-2.707-3.303
		c-0.506-1.359-0.758-4.023-0.758-7.99v-14.91h4.436v15.469c0,2.566,0.121,4.266,0.371,5.088c0.248,0.824,0.703,1.496,1.365,2.02
		c0.66,0.521,1.373,0.781,2.135,0.781c1.57,0,3.256-0.734,5.053-2.205s3.287-3.332,4.469-5.588V99.426H228.088z"/>
	<path fill="#171C61" d="M247.594,126.143V91.258h-8.002v-3.733h12.436v34.907h8.354v3.711H247.594z"/>
</g>
<g>
	<path fill="#006934" d="M139.455,151.02v7.445h-2.67v-20.424h5.084c2.088,0,3.611,0.232,4.57,0.699s1.692,1.152,2.202,2.061
		c0.508,0.906,0.764,1.916,0.764,3.029c0,1.309-0.344,2.529-1.027,3.658c-0.685,1.131-1.639,2-2.863,2.613
		c-1.224,0.609-2.884,0.918-4.981,0.918H139.455L139.455,151.02z M139.455,148.979h1.143c1.643,0,2.863-0.215,3.659-0.643
		c0.796-0.428,1.41-1.039,1.842-1.836c0.432-0.795,0.648-1.66,0.648-2.594c0-1.172-0.385-2.1-1.155-2.785s-2.285-1.027-4.544-1.027
		h-1.592L139.455,148.979L139.455,148.979z"/>
	<path fill="#006934" d="M156.631,158.465v-14.699h2.453v3.209c0.762-1.215,1.637-2.121,2.625-2.721s2.086-0.898,3.293-0.898
		c0.891,0,1.779,0.139,2.67,0.41v5.303h-2.361v-3.361c-0.412-0.07-0.734-0.104-0.977-0.104c-0.906,0-1.801,0.358-2.684,1.078
		c-0.881,0.719-1.736,1.801-2.566,3.248v8.536L156.631,158.465L156.631,158.465z"/>
	<path fill="#006934" d="M180.316,158.875c-2.105,0-3.793-0.736-5.061-2.207c-1.27-1.473-1.898-3.326-1.898-5.559
		c0-2.242,0.633-4.096,1.898-5.561c1.268-1.465,2.953-2.193,5.061-2.193c2.096,0,3.773,0.729,5.039,2.193
		c1.262,1.465,1.893,3.316,1.893,5.561c0,2.23-0.631,4.086-1.893,5.559C184.092,158.139,182.412,158.875,180.316,158.875z
		 M180.316,156.834c1.301,0,2.338-0.51,3.113-1.527c0.771-1.018,1.158-2.418,1.158-4.197c0-1.771-0.387-3.168-1.158-4.186
		c-0.775-1.018-1.812-1.527-3.113-1.527c-1.318,0-2.365,0.512-3.141,1.527c-0.773,1.018-1.16,2.414-1.16,4.186
		c0,1.779,0.387,3.182,1.16,4.197C177.951,156.324,178.998,156.834,180.316,156.834z"/>
	<path fill="#006934" d="M193.346,164.229v-2.285c1.369,0.402,2.525,0.604,3.467,0.604c0.812,0,1.506-0.143,2.08-0.43
		c0.572-0.287,1.021-0.771,1.34-1.445c0.322-0.676,0.482-1.853,0.482-3.528v-11.336h-6.24v-2.041h8.68v12.928
		c0,2.49-0.293,4.22-0.881,5.187c-0.586,0.968-1.295,1.662-2.131,2.086c-0.834,0.425-1.975,0.638-3.42,0.638
		C195.678,164.602,194.553,164.477,193.346,164.229z M200.305,138.451c0-0.549,0.188-0.959,0.557-1.232
		c0.373-0.271,0.73-0.41,1.072-0.41s0.699,0.137,1.072,0.41s0.559,0.684,0.559,1.232c0,0.547-0.186,0.959-0.559,1.232
		c-0.373,0.271-0.73,0.408-1.072,0.408s-0.699-0.137-1.072-0.408C200.49,139.41,200.305,138.998,200.305,138.451z"/>
	<path fill="#006934" d="M224.232,157.488c-1.961,0.934-3.812,1.4-5.561,1.4c-1.326,0-2.512-0.33-3.557-0.988
		c-1.047-0.66-1.883-1.604-2.512-2.824c-0.629-1.225-0.941-2.533-0.941-3.93c0-1.346,0.299-2.633,0.896-3.869
		c0.601-1.236,1.436-2.199,2.504-2.889s2.266-1.033,3.582-1.033c1.744,0,3.146,0.621,4.203,1.867
		c1.059,1.244,1.586,3.168,1.586,5.77v0.527h-10.143c0,1.018,0.215,1.945,0.643,2.785s0.988,1.471,1.684,1.895
		 s1.479,0.635,2.359,0.635c1.584,0,3.334-0.525,5.252-1.578v2.232H224.232L224.232,157.488z M214.449,149.684h7.33v-0.357
		c0-1.197-0.295-2.152-0.885-2.863c-0.592-0.709-1.375-1.062-2.352-1.062c-0.992,0-1.854,0.359-2.58,1.084
		C215.236,147.203,214.732,148.271,214.449,149.684z"/>
	<path fill="#006934" d="M243.244,158.041c-1.643,0.557-3.205,0.834-4.686,0.834c-1.481,0-2.793-0.34-3.938-1.02
		c-1.145-0.684-2.033-1.604-2.678-2.77c-0.643-1.164-0.963-2.484-0.963-3.967c0-2.23,0.729-4.086,2.184-5.561
		c1.455-1.471,3.211-2.207,5.266-2.207c1.516,0,3.117,0.287,4.812,0.859v2.35c-1.711-0.777-3.244-1.168-4.598-1.168
		c-0.896,0-1.742,0.223-2.527,0.66c-0.787,0.441-1.396,1.133-1.83,2.074s-0.646,1.908-0.646,2.9c0,1.317,0.414,2.578,1.244,3.781
		c0.829,1.202,2.131,1.803,3.901,1.803c0.539,0,1.067-0.035,1.586-0.107c0.519-0.074,1.476-0.346,2.869-0.816L243.244,158.041
		L243.244,158.041z"/>
	<path fill="#006934" d="M262.037,157.875c-1.154,0.479-1.992,0.766-2.51,0.859c-0.52,0.093-1.018,0.141-1.496,0.141
		c-1.025,0-1.965-0.197-2.816-0.59c-0.852-0.395-1.494-0.979-1.926-1.752c-0.434-0.775-0.648-1.971-0.648-3.588v-5.918h-3.686
		v-2.043h3.686v-5.918h2.439v5.918h6.547v2.043h-6.547v5.879c0,1.188,0.141,2.027,0.424,2.516c0.281,0.488,0.658,0.846,1.129,1.072
		 s1.021,0.34,1.656,0.34c1.189,0,2.439-0.371,3.748-1.117V157.875z"/>
</g>
</svg>